<svg id="Layer_1" data-name="Layer 1" xmlns="http://www.w3.org/2000/svg" xmlns:xlink="http://www.w3.org/1999/xlink" viewBox="0 0 159.98 40.44"><defs><style>.cls-1{fill:none;}.cls-2{clip-path:url(#clip-path);}.cls-3{fill:#ffce34;}.cls-4{fill:#f57f29;}.cls-5{fill:#6a634d;}.cls-6{fill:#231f20;}</style><clipPath id="clip-path" transform="translate(0 0)"><rect class="cls-1" width="159.98" height="40.44"/></clipPath></defs><title>logo_ch</title><g class="cls-2"><path class="cls-3" d="M15.91,0V14h0A12.15,12.15,0,0,0,28.07,1.88V0H15.91Z" transform="translate(0 0)"/><path class="cls-3" d="M28.07,28.78v-14h0A12.14,12.14,0,0,0,15.92,26.9v1.88H28.07Z" transform="translate(0 0)"/><path class="cls-4" d="M11.76,28.78A14.68,14.68,0,0,1,11.76,0V28.78Z" transform="translate(0 0)"/><path class="cls-5" d="M48.75,26c-4,0-7.21-1.23-9.51-3.65a11.31,11.31,0,0,1-3.13-8.11A12.21,12.21,0,0,1,39.5,5.6a13.44,13.44,0,0,1,10.19-4,15.17,15.17,0,0,1,6.87,1.5,0.26,0.26,0,0,1,.14.23v5a0.26,0.26,0,0,1-.21.25H56.44a0.25,0.25,0,0,1-.23-0.16C55,5.38,52.64,3.93,49,3.93a8.35,8.35,0,0,0-6.75,3,10,10,0,0,0-2.28,6.67,10.33,10.33,0,0,0,2.36,6.84,8.77,8.77,0,0,0,7.06,3.1,10.12,10.12,0,0,0,7.52-3.49A0.26,0.26,0,0,1,57.06,20h0.09a0.25,0.25,0,0,1,.16.24v2.23a0.26,0.26,0,0,1-.07.18A11.33,11.33,0,0,1,48.75,26" transform="translate(0 0)"/><path class="cls-5" d="M96.7,3.9a11.36,11.36,0,0,0-8.32,3.22,10.94,10.94,0,0,0-3.24,8.06,10.57,10.57,0,0,0,3,7.77A10.73,10.73,0,0,0,96.09,26a11.26,11.26,0,0,0,8.36-3.3,10.93,10.93,0,0,0,3.14-8A10.38,10.38,0,0,0,96.7,3.9m7.48,11.53a8.49,8.49,0,0,1-2.07,5.93,6.94,6.94,0,0,1-5.34,2.25A7.46,7.46,0,0,1,90.87,21a9.94,9.94,0,0,1-2.26-6.74,8.23,8.23,0,0,1,2-5.81A7,7,0,0,1,96,6.29a7.49,7.49,0,0,1,5.92,2.55,9.69,9.69,0,0,1,2.24,6.58" transform="translate(0 0)"/><path class="cls-5" d="M115.85,6.6a1.22,1.22,0,0,1,0-.17,1.64,1.64,0,0,1,1.29-1.34h0a0.35,0.35,0,0,0,.26-0.37,0.36,0.36,0,0,0-.35-0.32h-5.94a0.35,0.35,0,0,0-.07.7h0a1.64,1.64,0,0,1,1.32,1.6V23.25a1.64,1.64,0,0,1-1.32,1.6h0a0.19,0.19,0,0,0-.15.07,0.38,0.38,0,0,0-.1.28,0.36,0.36,0,0,0,.35.33h5.92a0.35,0.35,0,0,0,.35-0.35,0.3,0.3,0,0,0-.25-0.32h0a1.64,1.64,0,0,1-1.34-1.6V6.69s0-.06,0-0.09" transform="translate(0 0)"/><path class="cls-5" d="M139.67,20.37a0.35,0.35,0,0,0-.39.09,8.93,8.93,0,0,1-6.63,3.08,7.71,7.71,0,0,1-6.21-2.73,9.13,9.13,0,0,1-2.08-6,8.85,8.85,0,0,1,2-5.88,7.35,7.35,0,0,1,5.94-2.63c3.22,0,5.3,1.27,6.36,3.89a0.35,0.35,0,0,0,.39.22,0.36,0.36,0,0,0,.29-0.35V5.57a0.36,0.36,0,0,0-.19-0.32A13.72,13.72,0,0,0,133,3.9a12.14,12.14,0,0,0-9.2,3.64,11,11,0,0,0-3.07,7.86,10.23,10.23,0,0,0,2.83,7.33,11.34,11.34,0,0,0,8.59,3.3,10.24,10.24,0,0,0,7.68-3.09,0.35,0.35,0,0,0,.1-0.24v-2a0.35,0.35,0,0,0-.22-0.33" transform="translate(0 0)"/><path class="cls-5" d="M159.72,20.15a0.36,0.36,0,0,0-.42.2l-0.07.14a4.24,4.24,0,0,1-4,2.77h-6.83V15.84h6.33c1.32,0,2,.38,2.15,1.15a0.35,0.35,0,0,0,.35.3h0a0.35,0.35,0,0,0,.32-0.35V12.54a0.35,0.35,0,0,0-.7-0.07c-0.16.78-.88,1.16-2.19,1.16h-6.3V6.41h7.14a3,3,0,0,1,2.91,2.41v0a0.37,0.37,0,0,0,.34.28h0a0.35,0.35,0,0,0,.31-0.35v-4a0.35,0.35,0,0,0-.35-0.35H143.6a0.35,0.35,0,0,0-.05.7h0A1.64,1.64,0,0,1,145,6.71V23.22a1.64,1.64,0,0,1-1.28,1.59h-0.07a0.35,0.35,0,0,0,.05.7h15.15a0.36,0.36,0,0,0,.35-0.3L160,20.55a0.36,0.36,0,0,0-.25-0.4" transform="translate(0 0)"/><path class="cls-5" d="M80.74,6.69A1.64,1.64,0,0,1,82,5.09h0a0.35,0.35,0,0,0,.27-0.37A0.36,0.36,0,0,0,82,4.39H76a0.35,0.35,0,0,0-.07.69h0a1.62,1.62,0,0,1,1.29,1.6v6.93H65.69V6.77h0V6.69A1.65,1.65,0,0,1,67,5.09h0a0.34,0.34,0,0,0,.25-0.36A0.35,0.35,0,0,0,67,4.39H61a0.35,0.35,0,0,0-.35.33,0.34,0.34,0,0,0,.26.36l0.15,0a1.63,1.63,0,0,1,1.18,1.35q0,0.08,0,.16s0,0,0,.06V23.11h0v0.1A1.64,1.64,0,0,1,61,24.8h0l-0.13.06a0.35,0.35,0,0,0-.22.34,0.36,0.36,0,0,0,.35.33h6a0.35,0.35,0,0,0,.35-0.33,0.35,0.35,0,0,0-.22-0.35l-0.13,0h0a1.64,1.64,0,0,1-1.26-1.59V15.9H77.27s0,7,0,7.14a2,2,0,0,1-.08.74,1.64,1.64,0,0,1-1.16,1l-0.14.06a0.35,0.35,0,0,0,.15.67h6a0.35,0.35,0,0,0,.15-0.67L82,24.8a1.63,1.63,0,0,1-1.26-1.59V6.69Z" transform="translate(0 0)"/><polygon class="cls-4" points="71.17 37.58 71.17 40.33 70.03 40.33 70.03 33.81 71.17 33.81 71.17 36.52 74.28 36.52 74.28 33.81 75.42 33.81 75.42 40.33 74.28 40.33 74.28 37.58 71.17 37.58"/><path class="cls-4" d="M83.62,40.44A3.37,3.37,0,1,1,87,37.06a3.31,3.31,0,0,1-3.42,3.38m0-5.69a2.21,2.21,0,0,0-2.2,2.31,2.24,2.24,0,0,0,2.22,2.33,2.21,2.21,0,0,0,2.2-2.31,2.24,2.24,0,0,0-2.22-2.33" transform="translate(0 0)"/><polygon class="cls-4" points="94.11 40.33 92.96 40.33 92.96 34.87 90.89 34.87 90.89 33.81 96.18 33.81 96.18 34.87 94.11 34.87 94.11 40.33"/><polygon class="cls-4" points="105.94 34.84 102.26 34.84 102.26 36.53 105.53 36.53 105.53 37.55 102.26 37.55 102.26 39.3 105.99 39.3 105.99 40.33 101.11 40.33 101.11 33.81 105.94 33.81 105.94 34.84"/><polygon class="cls-4" points="111.71 33.81 112.85 33.81 112.85 39.29 116.28 39.29 116.28 40.33 111.71 40.33 111.71 33.81"/><path class="cls-4" d="M122.72,36.55c1.38,0.34,2.09.83,2.09,1.92s-1,2-2.33,2a4,4,0,0,1-2.72-1l0.69-.82a3,3,0,0,0,2.06.85,1,1,0,0,0,1.15-.83c0-.47-0.26-0.73-1.47-1-1.39-.34-2.17-0.75-2.17-2a2,2,0,0,1,2.22-1.9,3.6,3.6,0,0,1,2.36.82L124,35.4a3,3,0,0,0-1.77-.67,0.9,0.9,0,0,0-1.06.78c0,0.51.3,0.74,1.55,1" transform="translate(0 0)"/><path class="cls-6" d="M126.31,35.22a1.3,1.3,0,0,1,.11-0.52,1.38,1.38,0,0,1,.29-0.43,1.4,1.4,0,0,1,.43-0.29,1.34,1.34,0,0,1,1,0,1.37,1.37,0,0,1,.72.72,1.34,1.34,0,0,1,0,1,1.42,1.42,0,0,1-.29.43,1.41,1.41,0,0,1-.43.29,1.35,1.35,0,0,1-1,0,1.37,1.37,0,0,1-.72-0.72,1.3,1.3,0,0,1-.11-0.53m0.24,0a1.09,1.09,0,0,0,.09.43,1.11,1.11,0,0,0,.59.59,1.12,1.12,0,0,0,.86,0,1.1,1.1,0,0,0,.59-0.59,1.11,1.11,0,0,0,.09-0.43,1.09,1.09,0,0,0-.09-0.43,1.11,1.11,0,0,0-.59-0.59,1.12,1.12,0,0,0-.86,0,1.11,1.11,0,0,0-.59.59,1.08,1.08,0,0,0-.09.43m0.59-.78h0.6a0.6,0.6,0,0,1,.41.12,0.44,0.44,0,0,1,.13.34,0.41,0.41,0,0,1-.1.3,0.44,0.44,0,0,1-.26.12l0.4,0.65H128l-0.39-.63h-0.21V36h-0.28V34.44Zm0.28,0.67h0.34l0.12,0a0.18,0.18,0,0,0,.12-0.18,0.18,0.18,0,0,0-.12-0.18l-0.12,0h-0.34v0.43Z" transform="translate(0 0)"/></g></svg>